<svg id="Layer_1" data-name="Layer 1" xmlns="http://www.w3.org/2000/svg" xmlns:xlink="http://www.w3.org/1999/xlink" viewBox="0 0 621.19 1036.07"><defs><style>.cls-1,.cls-11,.cls-16,.cls-2,.cls-24,.cls-27,.cls-35,.cls-45,.cls-46,.cls-48,.cls-49,.cls-5,.cls-54,.cls-55,.cls-56,.cls-57,.cls-58,.cls-60,.cls-61,.cls-62,.cls-64,.cls-7,.cls-8{isolation:isolate;}.cls-2{font-size:18px;}.cls-11,.cls-16,.cls-2,.cls-24,.cls-35,.cls-4{fill:#fff;}.cls-11,.cls-2,.cls-55{font-family:Arial-BoldMT, Arial;font-weight:700;}.cls-3,.cls-46,.cls-49,.cls-61,.cls-62{opacity:0.3;}.cls-5,.cls-7,.cls-8{opacity:0.15;}.cls-5{fill:url(#Degradado_sin_nombre);}.cls-14,.cls-46,.cls-49,.cls-54,.cls-6,.cls-61,.cls-63,.cls-9{fill:none;}.cls-7{fill:url(#Degradado_sin_nombre_2);}.cls-8{fill:url(#Degradado_sin_nombre_3);}.cls-14,.cls-54,.cls-9{stroke-miterlimit:10;}.cls-9{stroke:url(#Degradado_sin_nombre_4);}.cls-10{fill:#ceb98e;}.cls-11,.cls-35{font-size:16px;}.cls-12{opacity:0.2;}.cls-13{fill:url(#Degradado_sin_nombre_5);}.cls-14,.cls-54{stroke:#fff;}.cls-14,.cls-46,.cls-49,.cls-54,.cls-61,.cls-63{stroke-linecap:round;}.cls-14,.cls-46,.cls-49,.cls-61,.cls-63{stroke-width:0.5px;}.cls-15,.cls-27,.cls-54{opacity:0.5;}.cls-16,.cls-24,.cls-55{font-size:14px;}.cls-16,.cls-24,.cls-35{font-family:MyriadPro-Regular, Myriad Pro;}.cls-17{letter-spacing:0.01em;}.cls-18,.cls-41,.cls-43{font-family:ArialHebrew-Light, Arial Hebrew;font-weight:300;}.cls-19{letter-spacing:0em;}.cls-20{letter-spacing:0em;}.cls-21{letter-spacing:-0.01em;}.cls-22{letter-spacing:0em;}.cls-23{letter-spacing:0em;}.cls-24{letter-spacing:-0.03em;}.cls-25{fill:url(#Degradado_sin_nombre_6);}.cls-26{fill:url(#Degradado_sin_nombre_7);}.cls-27{fill:url(#Degradado_sin_nombre_8);}.cls-28{fill:url(#Degradado_sin_nombre_9);}.cls-29{fill:url(#Degradado_sin_nombre_10);}.cls-30{fill:url(#Degradado_sin_nombre_11);}.cls-31{fill:url(#Degradado_sin_nombre_12);}.cls-32{fill:url(#Degradado_sin_nombre_13);}.cls-33{fill:url(#Degradado_sin_nombre_14);}.cls-34{fill:url(#Degradado_sin_nombre_15);}.cls-36{letter-spacing:-0.02em;}.cls-37{letter-spacing:-0.01em;}.cls-38{letter-spacing:0em;}.cls-39{letter-spacing:-0.01em;}.cls-40,.cls-41{letter-spacing:0em;}.cls-42{letter-spacing:-0.01em;}.cls-43{letter-spacing:0em;}.cls-44{letter-spacing:0em;}.cls-45,.cls-48,.cls-57,.cls-58{opacity:0.1;}.cls-45{fill:url(#Degradado_sin_nombre_16);}.cls-46,.cls-49,.cls-61,.cls-63{stroke-linejoin:round;}.cls-46{stroke:url(#Degradado_sin_nombre_17);}.cls-47{fill:#548c95;}.cls-48{fill:url(#Degradado_sin_nombre_18);}.cls-49{stroke:url(#Degradado_sin_nombre_19);}.cls-50{letter-spacing:0em;}.cls-51{letter-spacing:0.02em;}.cls-52{letter-spacing:0em;}.cls-53{letter-spacing:0.01em;}.cls-54{stroke-dasharray:0 2;}.cls-55{fill:#bba67c;}.cls-56,.cls-60{opacity:0.05;}.cls-56{fill:url(#Degradado_sin_nombre_20);}.cls-57{fill:url(#Degradado_sin_nombre_21);}.cls-59{fill:url(#Degradado_sin_nombre_22);}.cls-60{fill:url(#Degradado_sin_nombre_23);}.cls-61{stroke:url(#Degradado_sin_nombre_25);}.cls-63{stroke:url(#Degradado_sin_nombre_26);}.cls-64{fill:#110c0f;opacity:0.8;}</style><linearGradient id="Degradado_sin_nombre" x1="131.48" y1="-2881.04" x2="131.48" y2="-3239.28" gradientTransform="translate(0 3598.11)" gradientUnits="userSpaceOnUse"><stop offset="0" stop-color="#fff"/><stop offset="0.14" stop-color="#fff" stop-opacity="0.94"/><stop offset="1" stop-color="#fff" stop-opacity="0.6"/></linearGradient><linearGradient id="Degradado_sin_nombre_2" x1="201.68" y1="-3138.19" x2="302.18" y2="-3138.19" xlink:href="#Degradado_sin_nombre"/><linearGradient id="Degradado_sin_nombre_3" x1="262.95" y1="-2985.04" x2="287.41" y2="-2985.04" gradientTransform="translate(0 3598.11)" gradientUnits="userSpaceOnUse"><stop offset="0" stop-color="#fff"/><stop offset="0.08" stop-color="#fff" stop-opacity="0.7"/><stop offset="0.09" stop-color="#fff" stop-opacity="0.73"/><stop offset="0.14" stop-color="#fff" stop-opacity="0.94"/><stop offset="1" stop-color="#fff" stop-opacity="0.6"/></linearGradient><linearGradient id="Degradado_sin_nombre_4" x1="2787.8" y1="4889.12" x2="2907.34" y2="4889.12" gradientTransform="matrix(0.46, -0.89, -0.89, -0.46, 3140.26, 5505.03)" gradientUnits="userSpaceOnUse"><stop offset="0" stop-color="#fff" stop-opacity="0"/><stop offset="1" stop-color="#ceb98e"/></linearGradient><linearGradient id="Degradado_sin_nombre_5" x1="108.79" y1="2509.78" x2="133.71" y2="2509.78" gradientTransform="matrix(1, 0, 0, -1, 0, 3136.82)" gradientUnits="userSpaceOnUse"><stop offset="0" stop-color="#fff"/><stop offset="1" stop-color="#fff" stop-opacity="0"/></linearGradient><linearGradient id="Degradado_sin_nombre_6" x1="398.46" y1="-3253.01" x2="504.96" y2="-3285.42" gradientTransform="translate(0 3598.11)" gradientUnits="userSpaceOnUse"><stop offset="0" stop-color="#ceb98e"/><stop offset="0.16" stop-color="#dacaaa" stop-opacity="0.84"/><stop offset="0.41" stop-color="#eae1cf" stop-opacity="0.59"/><stop offset="0.64" stop-color="#f6f1e9" stop-opacity="0.36"/><stop offset="0.84" stop-color="#fdfbf9" stop-opacity="0.16"/><stop offset="1" stop-color="#fff" stop-opacity="0"/></linearGradient><linearGradient id="Degradado_sin_nombre_7" x1="390.95" y1="-3277.69" x2="497.45" y2="-3310.1" gradientTransform="translate(0 3587.41)" xlink:href="#Degradado_sin_nombre_6"/><linearGradient id="Degradado_sin_nombre_8" x1="408.45" y1="-3151.01" x2="618.32" y2="-2894.56" gradientTransform="translate(0 3598.11)" gradientUnits="userSpaceOnUse"><stop offset="0" stop-color="#fff" stop-opacity="0"/><stop offset="0.15" stop-color="#fbfdff" stop-opacity="0.09"/><stop offset="0.28" stop-color="#f1f8ff" stop-opacity="0.17"/><stop offset="0.41" stop-color="#deefff" stop-opacity="0.25"/><stop offset="0.53" stop-color="#c5e2ff" stop-opacity="0.32"/><stop offset="0.65" stop-color="#a4d1ff" stop-opacity="0.39"/><stop offset="0.77" stop-color="#7bbdff" stop-opacity="0.46"/><stop offset="0.89" stop-color="#4ca6ff" stop-opacity="0.53"/><stop offset="1" stop-color="#168aff" stop-opacity="0.6"/><stop offset="1" stop-color="#158aff" stop-opacity="0.6"/></linearGradient><linearGradient id="Degradado_sin_nombre_9" x1="376.92" y1="-3082.58" x2="379.73" y2="-3074.89" gradientTransform="translate(0 3598.11)" gradientUnits="userSpaceOnUse"><stop offset="0" stop-color="#fff" stop-opacity="0"/><stop offset="0.1" stop-color="#fafcff" stop-opacity="0.06"/><stop offset="0.23" stop-color="#eaf5ff" stop-opacity="0.14"/><stop offset="0.38" stop-color="#d1e8ff" stop-opacity="0.23"/><stop offset="0.53" stop-color="#add6ff" stop-opacity="0.32"/><stop offset="0.7" stop-color="#7fbfff" stop-opacity="0.42"/><stop offset="0.86" stop-color="#48a4ff" stop-opacity="0.52"/><stop offset="1" stop-color="#158aff" stop-opacity="0.6"/></linearGradient><linearGradient id="Degradado_sin_nombre_10" x1="329.65" y1="-3078.33" x2="337.51" y2="-3056.81" gradientTransform="translate(0 3598.11)" gradientUnits="userSpaceOnUse"><stop offset="0" stop-color="#fff" stop-opacity="0"/><stop offset="0.19" stop-color="#fcfeff" stop-opacity="0.11"/><stop offset="0.33" stop-color="#f3f9ff" stop-opacity="0.2"/><stop offset="0.45" stop-color="#e3f1ff" stop-opacity="0.27"/><stop offset="0.56" stop-color="#cde6ff" stop-opacity="0.34"/><stop offset="0.66" stop-color="#b0d7ff" stop-opacity="0.4"/><stop offset="0.76" stop-color="#8cc6ff" stop-opacity="0.46"/><stop offset="0.86" stop-color="#62b0ff" stop-opacity="0.52"/><stop offset="0.95" stop-color="#3299ff" stop-opacity="0.57"/><stop offset="1" stop-color="#158aff" stop-opacity="0.6"/></linearGradient><linearGradient id="Degradado_sin_nombre_11" x1="394.86" y1="-3105.41" x2="400.48" y2="-3090.02" xlink:href="#Degradado_sin_nombre_10"/><linearGradient id="Degradado_sin_nombre_12" x1="423.14" y1="-3148.68" x2="436.39" y2="-3112.39" xlink:href="#Degradado_sin_nombre_10"/><linearGradient id="Degradado_sin_nombre_13" x1="443.61" y1="-3184.2" x2="448.41" y2="-3171.03" xlink:href="#Degradado_sin_nombre_10"/><linearGradient id="Degradado_sin_nombre_14" x1="783.74" y1="-3295.97" x2="785.8" y2="-3290.35" gradientTransform="translate(-25.36 3863.23) rotate(-6.71)" xlink:href="#Degradado_sin_nombre_10"/><linearGradient id="Degradado_sin_nombre_15" x1="2159.67" y1="-3615.28" x2="2162.32" y2="-3608.03" gradientTransform="matrix(0.89, -0.45, 0.45, 0.89, 98.51, 4659.1)" xlink:href="#Degradado_sin_nombre_10"/><linearGradient id="Degradado_sin_nombre_16" x1="71.44" y1="-61.79" x2="71.44" y2="-141.5" gradientTransform="translate(0 1022.11)" gradientUnits="userSpaceOnUse"><stop offset="0" stop-color="#fff" stop-opacity="0"/><stop offset="0.14" stop-color="#fff" stop-opacity="0.14"/><stop offset="1" stop-color="#fff"/></linearGradient><linearGradient id="Degradado_sin_nombre_17" x1="71.44" y1="-61.54" x2="71.44" y2="-141.75" gradientTransform="translate(0 1022.11)" gradientUnits="userSpaceOnUse"><stop offset="0" stop-color="#fff" stop-opacity="0"/><stop offset="1" stop-color="#fff"/></linearGradient><linearGradient id="Degradado_sin_nombre_18" x1="144.35" y1="-61.79" x2="144.35" y2="-139.33" xlink:href="#Degradado_sin_nombre_16"/><linearGradient id="Degradado_sin_nombre_19" x1="144.35" y1="-61.54" x2="144.35" y2="-139.58" xlink:href="#Degradado_sin_nombre_17"/><linearGradient id="Degradado_sin_nombre_20" x1="435.85" y1="-42.97" x2="435.85" y2="-57.49" xlink:href="#Degradado_sin_nombre_16"/><linearGradient id="Degradado_sin_nombre_21" x1="416.3" y1="-34.42" x2="416.3" y2="-79.42" xlink:href="#Degradado_sin_nombre_16"/><linearGradient id="Degradado_sin_nombre_22" x1="441.69" y1="-35.71" x2="441.69" y2="-80.13" xlink:href="#Degradado_sin_nombre_16"/><linearGradient id="Degradado_sin_nombre_23" x1="429" y1="-64.34" x2="429" y2="-90.93" xlink:href="#Degradado_sin_nombre_16"/><linearGradient id="Degradado_sin_nombre_25" x1="416.3" y1="-34.17" x2="416.3" y2="-79.67" xlink:href="#Degradado_sin_nombre_17"/><linearGradient id="Degradado_sin_nombre_26" x1="441.69" y1="-35.46" x2="441.69" y2="-80.38" xlink:href="#Degradado_sin_nombre_17"/></defs><image class="cls-1" width="1221" height="1831" transform="translate(0 120.55) scale(0.5)" xlink:href="img/women-mobile.png"/><text class="cls-2" transform="translate(222.64 15.44)">COMMON PROBLEMS</text><g class="cls-3"><path class="cls-4" d="M278.18,690.27c1.7-8.9,3.6-17.7,5-26.6a269.85,269.85,0,0,0,3-26.9c.2-4.5.4-9,.4-13.5a121.75,121.75,0,0,0-.4-13.5,68.53,68.53,0,0,0-7.1-25.8,64.17,64.17,0,0,0-7.6-11.1c-1.4-1.7-2.9-3.4-4.4-5.1a42.65,42.65,0,0,1-4.1-5.4,17.72,17.72,0,0,1-1.5-3.1,13.5,13.5,0,0,1-.6-3.4,17,17,0,0,1,1.3-6.7,60.08,60.08,0,0,1,6.4-12,106.62,106.62,0,0,1,8.5-10.6c1.5-1.7,3.1-3.3,4.7-4.9.8-.8,1.7-1.5,2.5-2.3a11.32,11.32,0,0,1,1.3-1,2,2,0,0,1,1.5-.9,4.35,4.35,0,0,0-1.5.8,6.89,6.89,0,0,0-1.3,1.1,27.25,27.25,0,0,0-2.5,2.3c-1.6,1.6-3.1,3.2-4.6,4.9a104.67,104.67,0,0,0-8.2,10.7,50,50,0,0,0-6.2,11.9,18.24,18.24,0,0,0-1.2,6.5,11.34,11.34,0,0,0,.6,3.2,14,14,0,0,0,1.5,3,41.68,41.68,0,0,0,4.1,5.3c1.5,1.7,3,3.4,4.4,5.1a65.51,65.51,0,0,1,7.7,11.2c4.3,8,6.5,17.1,7.3,26.1a123.56,123.56,0,0,1,.4,13.6c0,4.5-.2,9-.5,13.6-.6,9-1.6,18-3.1,27" transform="translate(0 -10.7)"/></g><path class="cls-5" d="M232.18,374.77s-1.4,32.8-37.6,81-59.5,90.9-45.5,124.1c0,0-21.1,20.8-27.9,31.8,0,0-51.2,8.6-69.8,52.5s-20.6,52.9-20.6,52.9,13.8-93.7,36.2-133.3c35-61.9,30.3-49.5,83.2-104.6s73.1-68.1,63.1-105c0,0,5.6-14.2,9.4-15.3,2.1-.6,2.7,6.3,6.6,8.6C230.78,368.37,230.38,373.27,232.18,374.77Z" transform="translate(0 -10.7)"/><path class="cls-6" d="M-357,519.17" transform="translate(0 -10.7)"/><g class="cls-3"><path class="cls-4" d="M31,757.77a387.58,387.58,0,0,1,4.1-68.1c1.6-11.3,3.7-22.5,6.2-33.6s5.5-22.1,9-33a300.07,300.07,0,0,1,12.3-31.9c1.2-2.6,2.3-5.2,3.6-7.8l3.8-7.7c1.3-2.6,2.7-5,4.1-7.5l2.1-3.7,2.2-3.7a237.59,237.59,0,0,1,19.4-28.1l5.5-6.6c1.9-2.2,3.8-4.2,5.8-6.3l2.9-3.1c1-1,2-2,3.1-3l6.1-5.9A244.7,244.7,0,0,0,79,561.17l-2.2,3.7-2,3.7c-1.3,2.5-2.8,5-4,7.5l-3.8,7.7c-1.3,2.5-2.3,5.2-3.5,7.8a322,322,0,0,0-12.1,31.9c-3.5,10.8-6.6,21.8-9.2,32.9s-4.6,22.3-6.3,33.5-2.9,22.6-3.7,33.9A295.6,295.6,0,0,0,31,757.77Z" transform="translate(0 -10.7)"/></g><g class="cls-3"><path class="cls-4" d="M136.08,492.17c4.7-4.3,9.4-8.6,14.1-13s9.3-8.7,13.9-13.2c9.1-8.9,18.1-18,26.4-27.6a189.41,189.41,0,0,0,11.9-14.9,83.89,83.89,0,0,0,5-8.1,52.39,52.39,0,0,0,3.6-8.8,90.82,90.82,0,0,0,4.5-18.5,27,27,0,0,0-.4-9.4,18.89,18.89,0,0,0-1.9-4.4,26.94,26.94,0,0,0-3-3.7,26.73,26.73,0,0,1,3.1,3.6,14.58,14.58,0,0,1,2,4.4,25.84,25.84,0,0,1,.6,9.6,99.47,99.47,0,0,1-4.3,18.7c-.5,1.5-.9,3.1-1.5,4.6a34.89,34.89,0,0,1-2,4.4c-1.5,2.8-3.2,5.5-5,8.2a171.53,171.53,0,0,1-11.9,15.1c-8.4,9.6-17.4,18.7-26.6,27.5-4.6,4.4-9.3,8.7-14.1,13C145.68,483.77,140.88,488,136.08,492.17Z" transform="translate(0 -10.7)"/></g><path class="cls-7" d="M201.68,541s0-26.1,1.8-46.1,8.7-34.5,24.7-59.1,22.1-47.1,22.1-56.9c0,0,14.6,1.1,24,13.4s19.9,24.3,27.9,24.7a14.9,14.9,0,0,0-8.7,6.2c-3.3,5.1-21.4,41.1-28.3,46.8s-11.7,14-12.2,19.3c0,0-18.3,14.4-27.7,28.9S201.68,541,201.68,541Z" transform="translate(0 -10.7)"/><path class="cls-8" d="M263,562.37s-1.8,71.4,21,101.4c0,0,8.8-60.2-1.8-75.6S263,562.37,263,562.37Z" transform="translate(0 -10.7)"/><path class="cls-9" d="M94.22,666.26a137.64,137.64,0,0,1,6.61,137.39" transform="translate(0 -10.7)"/><polygon class="cls-10" points="89.32 659.53 89.54 647.45 99.78 653.44 89.32 659.53"/><text class="cls-11" transform="translate(44.09 818.81)">The spine&apos;s</text><text class="cls-11" transform="translate(44.09 838.01)">curvature</text><g class="cls-12"><path class="cls-4" d="M155.48,570.87c6.7-4,13.3-8.2,19.8-12.5s12.9-8.7,19.2-13.3,12.4-9.4,18.3-14.5a151.27,151.27,0,0,0,16.4-16.6c5.1-5.9,10-12,15.3-17.7a86.31,86.31,0,0,1,17.8-15.2,70.46,70.46,0,0,1,21.6-8.9,54,54,0,0,1,5.8-1.1,57.33,57.33,0,0,1,5.8-.7c3.9-.4,7.8-.5,11.7-.6a115,115,0,0,0-11.7.8c-1.9.2-3.9.6-5.8.9s-3.8.7-5.7,1.3a68.26,68.26,0,0,0-21.3,9.1,90.72,90.72,0,0,0-17.6,15.2c-5.3,5.7-10.1,11.8-15.2,17.7a153,153,0,0,1-16.6,16.6c-5.9,5.1-12.1,9.9-18.4,14.4C182.28,554.77,169.08,563.07,155.48,570.87Z" transform="translate(0 -10.7)"/></g><text class="cls-11" transform="translate(335.43 122.56)">Chronic </text><text class="cls-11" transform="translate(335.43 141.76)">headaches </text><text class="cls-11" transform="translate(189.6 625.66)">Nerve </text><text class="cls-11" transform="translate(189.6 644.86)">damage</text><path class="cls-13" d="M133.7,634.24s-16.28,0-24.88-9.08c0,0,10,4.44,12.35,2.44a32.66,32.66,0,0,0-.91-7.74c2.92,5.48,5.34,8.88,9.14,11.28Z" transform="translate(0 -10.7)"/><line class="cls-14" x1="128.71" y1="621.94" x2="182.31" y2="621.94"/><line class="cls-14" x1="149.27" y1="429.81" x2="210.87" y2="429.81"/><g class="cls-15"><text class="cls-16" transform="translate(521.02 318.81)">Difficul<tspan class="cls-17" x="41.3" y="0">t</tspan><tspan x="46.06" y="0">y</tspan><tspan class="cls-18" x="52.65" y="0"> </tspan><tspan x="56.54" y="0">tu</tspan><tspan class="cls-19" x="68.89" y="0">r</tspan><tspan class="cls-20" x="73.53" y="0">ning</tspan></text><text class="cls-16" transform="translate(521.02 335.61)">the<tspan class="cls-18" x="19.42" y="0"> </tspan><tspan x="23.31" y="0">head</tspan></text></g><g class="cls-15"><text class="cls-16" transform="translate(31.04 538.89)"><tspan class="cls-21">T</tspan><tspan x="6.79" y="0">ig</tspan><tspan class="cls-22" x="17.89" y="0">h</tspan><tspan class="cls-23" x="25.61" y="0">t</tspan></text><text class="cls-16" transform="translate(11.34 555.69)">muscles</text></g><g class="cls-15"><text class="cls-24" transform="translate(305.55 609.46)">W<tspan class="cls-23" x="11.38" y="0">eak</tspan></text><text class="cls-16" transform="translate(305.55 626.26)">muscles</text></g><g class="cls-15"><text class="cls-16" transform="translate(502.55 684.73)">Blue<tspan class="cls-18" x="25.62" y="0"> </tspan><tspan x="29.51" y="0">lig</tspan><tspan class="cls-22" x="43.92" y="0">h</tspan><tspan x="51.63" y="0">t</tspan></text></g><path class="cls-25" d="M395.18,314.17c11.6,4.4,23.2,8.6,34.8,12.7s23.4,7.8,35.3,11c5.9,1.6,11.9,3,17.9,4.1,3,.5,6,1,9,1.2a37.76,37.76,0,0,0,8.9-.2,10.19,10.19,0,0,0,3.7-1.4,3.54,3.54,0,0,0,1.4-3.1,12.22,12.22,0,0,0-1.2-4,30.3,30.3,0,0,0-2.4-3.8,65.5,65.5,0,0,0-6.1-6.9c-2.2-2.2-4.2-4.6-6.4-6.8l7.1,6a59.59,59.59,0,0,1,6.7,6.6,27.58,27.58,0,0,1,2.8,3.9,13.94,13.94,0,0,1,1.8,4.7,6.72,6.72,0,0,1-.3,2.8,5.86,5.86,0,0,1-1.7,2.4,11.83,11.83,0,0,1-4.7,2.2,35.69,35.69,0,0,1-9.7.8c-3.2-.1-6.3-.3-9.5-.7-6.3-.7-12.4-1.8-18.6-3-12.3-2.5-24.3-5.5-36.4-8.8s-24-6.8-35.9-10.5Z" transform="translate(0 -10.7)"/><polygon class="cls-26" points="393.08 318.57 379.98 303.57 399.58 299.77 393.08 318.57"/><text class="cls-11" transform="translate(475.69 423.68)">Blurred</text><text class="cls-11" transform="translate(475.69 442.88)">vision</text><text class="cls-11" transform="translate(471.06 938.58)">Loss of </text><text class="cls-11" transform="translate(471.06 957.78)">lung volume</text><text class="cls-11" transform="translate(471.06 976.98)">capacity</text><g id="light"><path class="cls-27" d="M469.28,393.07c1-2-1-6,0-9,6.9-16.9,10.3-34.2,11.7-51.7L597,707l-41.7,11.3-9,1.4-64.1,20.9-131.5-207.9h0c3.7-3.1,8.3-4.5,11.6-8.6,4-5,16,2,20-3,3-4,6-12,12-12-1-3,2-4,3-5,2-1,4-1,5-2,2-7-1-19,6-20,10,0,25,6,28-6,4-17-2-34,4-49,1-3,10-10,10-17Z" transform="translate(0 -10.7)"/><g class="cls-15"><path class="cls-28" d="M368.58,521.77s9.5,2.7,13.2-.2,3.8-11.4,3.8-11.4A19.54,19.54,0,0,1,368.58,521.77Z" transform="translate(0 -10.7)"/><path class="cls-29" d="M304,523s14.5,12.2,27.6,13.6,13.3,2.6,27.6-9.4C359.08,527.07,336.88,541,304,523Z" transform="translate(0 -10.7)"/><path class="cls-30" d="M388.48,510.17s11.2.1,12.3-9.1a68.59,68.59,0,0,1,3.9-16.4,31.94,31.94,0,0,0-6.7,15.2A12,12,0,0,1,388.48,510.17Z" transform="translate(0 -10.7)"/><path class="cls-31" d="M414.18,483.07s9.6,3.9,16.8,1.6,7.1-11.4,6.8-26.3a236,236,0,0,1,.7-25.1s-4.5,13.9-4.7,27.8S434.78,481.77,414.18,483.07Z" transform="translate(0 -10.7)"/><path class="cls-32" d="M439.48,429.27a22.31,22.31,0,0,0,11.5-21.8A51.47,51.47,0,0,1,439.48,429.27Z" transform="translate(0 -10.7)"/><path class="cls-33" d="M387.48,486.67s-1.1,13.4-37.8,24.9" transform="translate(0 -10.7)"/><path class="cls-34" d="M427.68,436.87s4.6,16.7-34.8,46.8" transform="translate(0 -10.7)"/></g></g><rect class="cls-6" x="148.45" y="32.48" width="328.93" height="34.55"/><text class="cls-35" transform="translate(154.96 44.48)">E<tspan class="cls-36" x="7.87" y="0">x</tspan><tspan class="cls-37" x="15.04" y="0">c</tspan><tspan class="cls-38" x="22.11" y="0">essi</tspan><tspan class="cls-39" x="46.54" y="0">v</tspan><tspan x="54.08" y="0">e</tspan><tspan class="cls-18" x="62.1" y="0"> </tspan><tspan class="cls-38" x="66.54" y="0">use</tspan><tspan class="cls-18" x="89.71" y="0"> </tspan><tspan class="cls-40" x="94.16" y="0">of</tspan><tspan class="cls-18" x="107.61" y="0"> </tspan><tspan class="cls-38" x="112.06" y="0">mobile</tspan><tspan class="cls-18" x="158.83" y="0"> </tspan><tspan x="163.28" y="0">phones</tspan><tspan class="cls-18" x="213.28" y="0"> </tspan><tspan x="217.73" y="0">can</tspan><tspan class="cls-41" x="241.49" y="0"> </tspan><tspan x="245.93" y="0">inc</tspan><tspan class="cls-42" x="265.72" y="0">r</tspan><tspan class="cls-40" x="270.8" y="0">ease</tspan><tspan class="cls-43" x="300.88" y="0"> </tspan></text><text class="cls-35" transform="translate(179.96 63.68)">the<tspan class="cls-18" x="22.19" y="0"> </tspan><tspan class="cls-44" x="26.64" y="0">r</tspan><tspan class="cls-38" x="31.94" y="0">isk</tspan><tspan class="cls-41" x="49.52" y="0"> </tspan><tspan x="53.97" y="0">of</tspan><tspan class="cls-18" x="67.42" y="0"> </tspan><tspan x="71.87" y="0">de</tspan><tspan class="cls-39" x="88.91" y="0">v</tspan><tspan x="96.45" y="0">eloping</tspan><tspan class="cls-18" x="147.69" y="0"> </tspan><tspan x="152.14" y="0">health</tspan><tspan class="cls-18" x="194.7" y="0"> </tspan><tspan x="199.15" y="0">p</tspan><tspan class="cls-42" x="208.25" y="0">r</tspan><tspan x="213.33" y="0">oblems</tspan></text><path class="cls-45" d="M91.8,960.32h0s.76-10.78-1.61-17.24-5-6.93-8.77-10.37-7.76-6.64-7.7-9.3.89-5.21,1-7.17,1.22-2.56,3.41-2.56,4.76,1.08,6.28.27.37-3,.81-3.7,1.54-.88,1.39-1.24A1.6,1.6,0,0,0,85,908s1.65-1,1.65-1.45a8.31,8.31,0,0,0-1.15-1.94s2.82-1.26,2.6-2.21a6.45,6.45,0,0,0-1.79-2.6c-.9-1-2.45-2.36-2.54-3.28a16.16,16.16,0,0,1,.33-2.49,5.25,5.25,0,0,0-.42-2.8L83.15,890A33.6,33.6,0,0,0,81,885.82c-.84-1.17-3.34-5.18-12.13-5.14a13.08,13.08,0,0,0-11.64,5.06,13.78,13.78,0,0,0-1.29,15c1.54,2.55,5.6,5.53,4.74,12.14s-1.87,8.84-5.9,17.81c-7,15.67-2.3,28-1.52,29.57" transform="translate(0 -10.7)"/><path class="cls-46" d="M91.8,960.32h0s.76-10.78-1.61-17.24-5-6.93-8.77-10.37-7.76-6.64-7.7-9.3.89-5.21,1-7.17,1.22-2.56,3.41-2.56,4.76,1.08,6.28.27.37-3,.81-3.7,1.54-.88,1.39-1.24A1.6,1.6,0,0,0,85,908s1.65-1,1.65-1.45a8.31,8.31,0,0,0-1.15-1.94s2.82-1.26,2.6-2.21a6.45,6.45,0,0,0-1.79-2.6c-.9-1-2.45-2.36-2.54-3.28a16.16,16.16,0,0,1,.33-2.49,5.25,5.25,0,0,0-.42-2.8L83.15,890A33.6,33.6,0,0,0,81,885.82c-.84-1.17-3.34-5.18-12.13-5.14a13.08,13.08,0,0,0-11.64,5.06,13.78,13.78,0,0,0-1.29,15c1.54,2.55,5.6,5.53,4.74,12.14s-1.87,8.84-5.9,17.81c-7,15.67-2.3,28-1.52,29.57" transform="translate(0 -10.7)"/><path class="cls-47" d="M66.18,907.54a60.05,60.05,0,0,1-1.06,11.1,99.34,99.34,0,0,1-2.61,10.87l-1.65,5.28q-.78,2.6-1.3,5.24A35.51,35.51,0,0,0,59,950.61a62,62,0,0,0,2.19,10.58c.48,1.77,1,3.53,1.51,5.3s1,3.52,1.5,5.38a40.86,40.86,0,0,1,1.32,11.23,27.06,27.06,0,0,1-.84,5.6,14.26,14.26,0,0,1-2.37,5.06,11.28,11.28,0,0,0,1-2.56,17.33,17.33,0,0,0,.55-2.67,28.91,28.91,0,0,0,.18-5.42A45.26,45.26,0,0,0,62,972.5c-2.24-6.93-5-13.93-5.92-21.59a36.72,36.72,0,0,1,.73-11.46,77.51,77.51,0,0,1,3.51-10.67c1.25-3.44,2.4-6.93,3.4-10.46A96.73,96.73,0,0,0,66.18,907.54Z" transform="translate(0 -10.7)"/><path class="cls-48" d="M157.68,960.32h.1s1.9-11-2.93-19.55-11.46-8.62-12.13-16.81c-.22-2.66,3.66-3.82,4.8-5.41s2.44-1.44,4.26-.21,3.34,3.56,5.05,3.74,2-2.3,2.74-2.61,1.77.13,1.85-.25a1.59,1.59,0,0,0-.72-1.65s1.94.07,2.17-.28A8.06,8.06,0,0,0,163,915s3,.53,3.39-.38a6.36,6.36,0,0,0,0-3.16c-.18-1.34-.71-3.33-.27-4.14s1.23-1.27,1.67-1.88a5.29,5.29,0,0,0,1.22-2.56l.25-1.38a33.41,33.41,0,0,0,.55-4.67c0-1.44.14-6.16-7.17-11a13.08,13.08,0,0,0-12.48-2.32,13.8,13.8,0,0,0-9.5,11.75c-.15,3,1.55,7.72-2.87,12.71,0,0-11.55,10.35-14.89,17.93s-4.63,13.19-3.64,18.6,2.29,12.28,2.29,15.81" transform="translate(0 -10.7)"/><path class="cls-49" d="M157.68,960.32h.1s1.9-11-2.93-19.55-11.46-8.62-12.13-16.81c-.22-2.66,3.66-3.82,4.8-5.41s2.44-1.44,4.26-.21,3.34,3.56,5.05,3.74,2-2.3,2.74-2.61,1.77.13,1.85-.25a1.59,1.59,0,0,0-.72-1.65s1.94.07,2.17-.28A8.06,8.06,0,0,0,163,915s3,.53,3.39-.38a6.36,6.36,0,0,0,0-3.16c-.18-1.34-.71-3.33-.27-4.14s1.23-1.27,1.67-1.88a5.29,5.29,0,0,0,1.22-2.56l.25-1.38a33.41,33.41,0,0,0,.55-4.67c0-1.44.14-6.16-7.17-11a13.08,13.08,0,0,0-12.48-2.32,13.8,13.8,0,0,0-9.5,11.75c-.15,3,1.55,7.72-2.87,12.71,0,0-11.55,10.35-14.89,17.93s-4.63,13.19-3.64,18.6,2.29,12.28,2.29,15.81" transform="translate(0 -10.7)"/><path class="cls-47" d="M145.74,906.23a11.09,11.09,0,0,1-1.77,5.83,14.46,14.46,0,0,1-4.47,4.37l-2.61,1.5-1.15.84-1.08.94a24.44,24.44,0,0,0-3.65,4.46,31.12,31.12,0,0,0-2.59,5.16,30.81,30.81,0,0,0-1.48,5.58,36.56,36.56,0,0,0-.12,11.58A68.42,68.42,0,0,0,129.46,958c1.12,3.82,2.62,7.59,3.54,11.64.2,1,.46,2,.58,3.06l.22,1.54c.06.52.06,1,.1,1.56a24.83,24.83,0,0,1,0,3.11,26.29,26.29,0,0,1-.27,3.08,50.65,50.65,0,0,1-3.25,11.75,67.43,67.43,0,0,0,1.78-11.87,35.62,35.62,0,0,0-1.43-11.63c-1.13-3.76-2.66-7.49-4-11.36a67.32,67.32,0,0,1-2.9-12,38.3,38.3,0,0,1,.31-12.5,34.36,34.36,0,0,1,1.83-6,28.31,28.31,0,0,1,3.09-5.5,24.78,24.78,0,0,1,4.29-4.63l1.28-.94c.45-.29.91-.56,1.36-.84l1.44-.69,1.32-.6a13.9,13.9,0,0,0,4.52-3.58A11.69,11.69,0,0,0,145.74,906.23Z" transform="translate(0 -10.7)"/><g class="cls-15"><text class="cls-16" transform="translate(41.5 1010.72)">No<tspan class="cls-50" x="16.9" y="0">r</tspan><tspan x="21.53" y="0">mal</tspan></text><text class="cls-16" transform="translate(41.5 1027.52)">cu<tspan class="cls-51" x="13.99" y="0">r</tspan><tspan class="cls-52" x="18.91" y="0">va</tspan><tspan x="32.28" y="0">tu</tspan><tspan class="cls-39" x="44.63" y="0">r</tspan><tspan class="cls-23" x="49.07" y="0">e</tspan></text></g><g class="cls-15"><text class="cls-16" transform="translate(125.75 1010.72)">E<tspan class="cls-53" x="6.89" y="0">x</tspan><tspan x="13.55" y="0">t</tspan><tspan class="cls-39" x="18.19" y="0">r</tspan><tspan x="22.62" y="0">eme</tspan></text><text class="cls-16" transform="translate(125.75 1027.52)">cu<tspan class="cls-51" x="13.99" y="0">r</tspan><tspan class="cls-52" x="18.91" y="0">va</tspan><tspan x="32.28" y="0">tu</tspan><tspan class="cls-39" x="44.63" y="0">r</tspan><tspan class="cls-23" x="49.07" y="0">e</tspan></text></g><rect class="cls-6" x="71.23" y="421.83" width="80.52" height="42.11"/><text class="cls-11" transform="translate(71.23 433.82)">Stress on </text><text class="cls-11" transform="translate(71.23 453.02)">C-spine</text><line class="cls-54" x1="137.65" y1="905.86" x2="177.75" y2="865.76"/><text class="cls-55" transform="translate(168.71 861.61)">45°</text><text class="cls-55" transform="translate(530.02 158.54)">45°</text><line class="cls-54" x1="466.44" y1="234.13" x2="535.3" y2="165.26"/><path class="cls-56" d="M440,972l-.23-.42a26.57,26.57,0,0,1-1.58-2.37,13.91,13.91,0,0,1-2.17-1.41s-3.26-1.29-4.58-3.21a61.57,61.57,0,0,0-.34,7.81c.22,2.22.15,6.71.15,6.71h6.43c.33-1.36,2.9-2.53,2.9-4.71A5.19,5.19,0,0,0,440,972Z" transform="translate(0 -10.7)"/><path class="cls-57" d="M406,969.87s.27-3.46.27-4.44a3.49,3.49,0,0,1,.6-2.6c.65-.65.16-3.25,1.14-4.22s-.16-.76.49-2.22,1.68-1.68,1.95-3,.49-2.76,4.66-6.39,5.52-4.33,6.61-4.33,2.6.11,3.14,2.87,1,2.6,1,4.71-.44,5.74-.44,5.74,1.73,2.06,1.73,3.41v8.93s.87,4.49-1.79,7.15-4.93,5.58-8.12,5.58c0,0-4.76,6.61-8.66,6.61s-2.92-3.79-2.92-3.79S404.58,973.11,406,969.87Z" transform="translate(0 -10.7)"/><g class="cls-58"><path class="cls-59" d="M430.71,954.72c-.15-.67-1.2-5.33-.64-7.65.6-2.49,1.52-6.77,6.88-4.39s3.93,2.9,5.58,4.55a44.66,44.66,0,0,1,4.68,5.79c2.52,3.36,3.44,5,3.65,8.88s1.62.92,1.62,5,.81,5.9.81,7.9-.7,4.17-.43,4.87-.57,3.65.16,4.39.92,3-2.06,2.11c0,0-6.27-1.66-8.61-5.3-1.72.43-3.78.67-4.6-.39a1.27,1.27,0,0,1-.3-1.14c.33-1.36,2.9-2.53,2.9-4.71a5.32,5.32,0,0,0-.57-2.41,4.16,4.16,0,0,0-.23-.42,26.57,26.57,0,0,1-1.58-2.37,13.91,13.91,0,0,1-2.17-1.41s-3.26-1.29-4.58-3.21a4.11,4.11,0,0,1-.4-.74,13.49,13.49,0,0,1-.5-7.25c.24-1.45.34-1.88.37-2v-.17Z" transform="translate(0 -10.7)"/></g><path class="cls-60" d="M429.43,931.18a36.4,36.4,0,0,1,.34,8.34,45.54,45.54,0,0,0,.14,12.19l3.63,2.7-2.83,3.36L428,955.33l-2.44,2.44-1.08-3a5.06,5.06,0,0,0,2.17-4.28c0-3-.33-6.6-.33-10.94,0-2.95-.21-5.85-.21-8.34" transform="translate(0 -10.7)"/><path class="cls-56" d="M440,972l-.23-.42a26.57,26.57,0,0,1-1.58-2.37,13.91,13.91,0,0,1-2.17-1.41s-3.26-1.29-4.58-3.21a61.57,61.57,0,0,0-.34,7.81c.22,2.22.15,6.71.15,6.71h6.43c.33-1.36,2.9-2.53,2.9-4.71A5.19,5.19,0,0,0,440,972Z" transform="translate(0 -10.7)"/><path class="cls-61" d="M406,969.87s.27-3.46.27-4.44a3.49,3.49,0,0,1,.6-2.6c.65-.65.16-3.25,1.14-4.22s-.16-.76.49-2.22,1.68-1.68,1.95-3,.49-2.76,4.66-6.39,5.52-4.33,6.61-4.33,2.6.11,3.14,2.87,1,2.6,1,4.71-.44,5.74-.44,5.74,1.73,2.06,1.73,3.41v8.93s.87,4.49-1.79,7.15-4.93,5.58-8.12,5.58c0,0-4.76,6.61-8.66,6.61s-2.92-3.79-2.92-3.79S404.58,973.11,406,969.87Z" transform="translate(0 -10.7)"/><g class="cls-62"><path class="cls-63" d="M430.71,954.72c-.15-.67-1.2-5.33-.64-7.65.6-2.49,1.52-6.77,6.88-4.39s3.93,2.9,5.58,4.55a44.66,44.66,0,0,1,4.68,5.79c2.52,3.36,3.44,5,3.65,8.88s1.62.92,1.62,5,.81,5.9.81,7.9-.7,4.17-.43,4.87-.57,3.65.16,4.39.92,3-2.06,2.11c0,0-6.27-1.66-8.61-5.3-1.72.43-3.78.67-4.6-.39a1.27,1.27,0,0,1-.3-1.14c.33-1.36,2.9-2.53,2.9-4.71a5.32,5.32,0,0,0-.57-2.41,4.16,4.16,0,0,0-.23-.42,26.57,26.57,0,0,1-1.58-2.37,13.91,13.91,0,0,1-2.17-1.41s-3.26-1.29-4.58-3.21a4.11,4.11,0,0,1-.4-.74,13.49,13.49,0,0,1-.5-7.25c.24-1.45.34-1.88.37-2v-.17Z" transform="translate(0 -10.7)"/></g><path class="cls-60" d="M429.43,931.18a36.4,36.4,0,0,1,.34,8.34,45.54,45.54,0,0,0,.14,12.19l3.63,2.7-2.83,3.36L428,955.33l-2.44,2.44-1.08-3a5.06,5.06,0,0,0,2.17-4.28c0-3-.33-6.6-.33-10.94,0-2.95-.21-5.85-.21-8.34" transform="translate(0 -10.7)"/><rect class="cls-64" x="404.18" y="916.24" width="50.28" height="25.79"/><line class="cls-54" x1="402.98" y1="942.55" x2="457.29" y2="942.55"/><text class="cls-55" transform="translate(416.28 931.19)">30%</text></svg>